<?xml version="1.0" encoding="UTF-8"?>
<svg id="Layer_1" data-name="Layer 1" xmlns="http://www.w3.org/2000/svg" viewBox="0 0 1000 567.47">
  <defs>
    <style>
      .cls-1 {
        fill: #fff;
      }
    </style>
  </defs>
  <path class="cls-1" d="M999.11,399.23c-1.27-4.07-1.27-8.39-2.03-12.45-1.78-8.89-4.07-17.79-7.37-26.43-5.34-13.47-12.71-26.18-22.11-37.36-8.89-10.42-19.06-19.31-30.24-26.94-7.12-4.83-14.99-8.89-22.87-12.2-7.62-3.3-15.5-5.84-23.38-8.13-10.67-3.05-21.85-4.57-32.78-6.1-5.08-.76-10.42-1.02-15.76-.76-2.29,0-4.57,0-6.61-1.02.25-1.27,1.52-1.27,2.29-1.52,5.59-1.78,11.44-3.05,17.03-5.08,5.34-1.78,10.67-3.56,15.76-6.1,4.07-2.03,8.39-3.56,12.45-5.84,10.93-5.84,21.35-12.45,30.5-20.84,7.62-6.86,14.23-14.23,19.57-22.62,4.57-7.12,8.64-14.49,10.93-22.87,2.03-6.35,3.81-12.45,4.32-19.06.51-9.15.51-18.04-1.52-27.19-1.52-6.35-3.3-12.71-6.1-18.55-2.8-6.35-6.35-12.2-10.17-17.79-10.67-14.99-24.65-26.43-40.41-35.58-8.13-4.83-16.52-8.64-25.41-12.2-8.64-3.56-17.79-6.35-26.94-8.64-5.59-1.27-11.18-2.29-16.77-3.56-9.66-1.78-19.31-2.29-28.97-3.81-3.81-.51-7.88-.51-11.94-.51h-31.51c-1.02,0-2.29.25-3.05-.76-.76-1.27.51-2.03,1.02-2.8,3.05-5.84,7.62-9.91,12.45-14.23,4.83-4.32,10.42-6.86,16.52-8.89,5.84-1.78,11.44-2.8,17.53-2.29,2.03,0,3.3-.51,3.3-2.8C796.82,1.27,795.8,0,793.52,0h-174.84c-2.8,0-3.56,1.02-3.81,4.07,0,2.8,1.78,3.05,3.81,3.05,6.35-.51,12.45.76,18.55,2.8,6.86,2.29,12.96,6.1,18.04,10.93,7.37,7.12,12.45,15.5,15.5,25.16,3.05,9.4,4.32,18.81,4.32,28.46v377.63c0,.76,0,1.52-.76,1.78-1.02.25-1.52-.25-1.78-1.02-9.91-13.47-20.84-26.18-31-39.39-8.39-10.67-16.77-21.09-25.16-31.77-7.88-9.91-15.76-20.08-23.63-29.99-8.39-10.42-16.77-20.84-24.9-31.26-10.17-12.96-20.33-25.92-30.75-38.63-10.17-12.71-20.33-25.41-30.5-37.86-9.15-11.44-18.3-23.13-27.45-34.82-10.93-13.72-21.85-27.19-32.78-40.91-10.17-12.71-20.33-25.67-30.5-38.63-9.15-11.69-18.55-23.13-27.7-34.82-9.91-12.71-20.08-25.41-29.99-37.86-6.1-7.88-12.45-15.5-18.55-23.38-2.03-2.54-2.29-3.81,0-6.61,5.59-6.86,12.2-12.45,20.58-15.76,6.86-2.8,13.98-4.57,21.35-4.32,2.03,0,3.81,0,3.56-2.54,0-2.54-1.52-4.32-3.81-4.32h-175.09c-2.54,0-3.3,1.02-3.3,4.32,0,2.29,1.27,3.05,3.3,2.8,6.1-.25,11.94.51,17.53,2.29,6.1,2.03,11.69,4.57,16.52,8.89,4.57,4.07,9.4,8.39,12.45,14.23.51,1.02,1.78,1.52,1.02,2.8-.76,1.27-2.03.76-3.05.76h-31.51c-4.07,0-8.13,0-11.94.51-9.66,1.52-19.31,2.03-28.97,3.81-5.59,1.02-11.18,2.03-16.77,3.56-9.15,2.29-18.04,5.08-26.94,8.64-8.64,3.56-17.28,7.37-25.41,12.2-15.76,9.15-29.48,20.84-40.41,35.58-4.07,5.59-7.62,11.44-10.17,17.79-2.54,5.84-4.57,12.2-6.1,18.55-2.03,9.15-2.03,18.04-1.52,27.19.51,6.61,2.29,12.71,4.32,19.06,2.54,8.13,6.35,15.76,10.93,22.87,5.59,8.39,12.2,15.76,19.57,22.62,9.4,8.39,19.57,14.99,30.5,20.84,4.07,2.29,8.39,3.81,12.45,5.84,5.08,2.29,10.42,4.32,15.76,6.1,5.59,2.03,11.44,3.3,17.03,5.08.76,0,2.03,0,2.29,1.52-2.03,1.02-4.32,1.02-6.61,1.02-5.34,0-10.67,0-15.76.76-10.93,1.52-22.11,3.05-32.78,6.1-8.13,2.29-16.01,4.83-23.38,8.13-7.88,3.56-15.5,7.37-22.87,12.2-11.44,7.62-21.6,16.52-30.24,26.94-9.4,11.18-16.77,23.63-22.11,37.36-3.3,8.64-5.59,17.53-7.37,26.43-.76,4.07-.76,8.39-2.03,12.45-.76,2.29-.25,5.34-.51,8.13-.51,8.13.51,16.26,2.03,24.14.51,2.29.25,4.83,1.02,7.12,1.52,4.57,2.29,9.4,3.56,13.98,1.78,5.34,3.56,10.67,5.84,16.01,3.3,7.37,7.12,14.49,11.44,21.09,9.66,14.74,21.6,27.19,35.58,38.12,8.13,6.1,16.77,11.69,25.92,16.26,6.1,3.05,12.45,5.84,18.81,8.39,6.35,2.29,12.96,4.32,19.31,6.1,4.07,1.27,8.13,2.29,12.2,3.05,8.89,1.52,18.04,3.05,27.19,3.81,1.02,0,1.78.25,1.78,1.52h219.82s.25-2.03.25-3.05c0-2.03-1.02-3.05-3.3-3.3-7.12-.51-14.49-1.27-21.09-4.07-8.64-3.81-16.26-9.15-21.85-17.03-7.37-10.17-11.18-21.35-12.71-33.54-.76-6.1-.76-12.2-.76-18.3V119.95c0-1.02,0-2.03.76-2.54,1.02-.51,2.03.51,2.54,1.27,2.29,3.05,4.57,6.1,7.12,9.15,9.4,11.94,18.81,24.14,28.21,36.09,10.17,12.96,20.33,25.92,30.5,38.88,6.86,8.64,13.98,17.28,20.84,26.18,8.39,10.42,16.52,21.09,24.9,31.77,10.17,12.96,20.58,25.92,30.75,39.14,12.71,16.01,25.16,32.27,37.86,48.28,8.39,10.67,16.77,21.09,25.16,31.77,10.17,12.96,20.33,25.67,30.24,38.63,10.17,12.96,20.33,25.67,30.5,38.63,10.67,13.72,21.35,27.45,32.27,41.17,10.42,13.21,20.84,26.18,31,39.39,2.8,3.56,2.8,4.07-.25,7.12-9.91,9.91-21.85,15.5-36.09,15.5-6.35,0-6.86.76-5.84,7.12h219.57s.76-1.27,1.78-1.52c9.15-1.02,18.3-2.29,27.19-3.81,4.07-.76,8.13-1.78,12.2-3.05,6.61-2.03,12.96-3.81,19.31-6.1,6.35-2.54,12.71-5.34,18.81-8.39,9.15-4.57,17.79-9.91,25.92-16.26,13.98-10.67,25.92-23.38,35.58-38.12,4.32-6.86,8.39-13.72,11.44-21.09,2.29-5.08,4.07-10.42,5.84-16.01,1.52-4.57,2.03-9.4,3.56-13.98.76-2.29.51-4.83,1.02-7.12,1.52-8.13,2.54-16.01,2.03-24.14,0-2.8.25-5.59-.51-8.13l-.25-.51ZM262.14,387.54h0v104.19c0,8.64-.76,17.03-3.05,25.41-3.05,11.18-8.39,20.84-17.03,28.72-6.86,6.61-15.25,10.42-24.4,12.45-6.35,1.52-12.96,1.02-19.57,1.52-9.91.76-20.08.25-29.99-1.02-2.03-.25-3.81,0-5.84-.76-7.37-2.03-14.74-3.3-21.6-6.35-7.12-3.05-13.72-6.61-20.08-10.67-7.12-4.57-12.96-10.42-18.81-16.26-7.88-7.88-13.98-17.03-19.57-26.68-3.81-6.35-6.61-12.96-9.4-19.82-2.03-5.34-3.81-10.93-5.59-16.26-1.52-4.83-2.29-9.91-3.56-14.74-1.78-7.12-2.29-14.49-3.3-21.6-1.02-7.12-.51-14.49-.51-21.85,0-9.91,1.52-19.57,2.8-29.22.76-4.83,2.03-9.91,3.3-14.74,1.52-6.1,3.56-12.45,6.1-18.3,2.03-4.57,3.81-9.15,6.1-13.72,4.57-8.13,9.66-16.01,15.76-22.87,7.12-8.13,15.25-14.74,24.65-19.82,6.1-3.3,12.71-6.1,19.57-7.88,8.13-2.03,16.26-3.56,24.65-3.56h94.28c4.57,0,5.08.76,5.08,5.08v108.77ZM258.07,268.1c-15.5-.51-31,1.02-46.25-.76-4.32-.51-8.64-.76-12.96-1.78-9.4-2.03-18.55-4.57-27.45-8.64-5.59-2.54-10.93-5.08-16.01-8.39-11.44-7.37-21.09-16.52-29.22-27.45-5.08-7.12-9.66-14.74-12.96-22.62-2.54-6.61-4.57-13.21-6.35-20.08-1.27-5.59-2.03-11.18-2.29-16.52-.51-6.86-.25-13.98.51-20.84,1.52-14.23,5.59-27.45,12.45-39.64,6.1-11.18,13.72-21.35,23.63-29.73,7.88-6.61,16.26-12.2,25.41-16.52,8.89-4.07,17.79-7.12,27.45-9.15,13.72-3.05,27.45-3.81,41.42-4.07h16.52c3.3,0,4.83,1.02,5.84,4.07,2.8,8.13,4.07,16.77,4.07,25.41v192.12c0,4.07-.76,5.08-4.32,5.08l.51-.51ZM736.85,174.59v-103.68c0-8.64,1.27-17.03,4.07-25.41,1.02-3.05,2.54-4.07,5.84-4.07h16.52c13.98.25,27.7,1.02,41.42,4.07,9.4,2.03,18.55,5.08,27.45,9.15,9.4,4.32,17.79,9.91,25.41,16.52,9.91,8.39,17.53,18.3,23.63,29.73,6.86,12.45,10.93,25.67,12.45,39.64.76,6.86,1.02,13.98.51,20.84-.25,5.59-.76,11.18-2.29,16.52-1.78,6.86-3.81,13.47-6.35,20.08-3.3,8.13-7.88,15.76-12.96,22.62-7.88,10.93-17.79,20.08-29.22,27.45-5.08,3.3-10.42,6.1-16.01,8.39-8.89,4.07-18.04,6.61-27.45,8.64-4.32,1.02-8.64,1.27-12.96,1.78-15.5,1.78-31,.51-46.25.76-3.56,0-4.32-.76-4.32-5.08v-88.44l.51.51ZM938.62,425.92c-1.02,7.12-1.52,14.49-3.3,21.6-1.27,4.83-2.03,9.91-3.56,14.74-1.78,5.59-3.3,10.93-5.59,16.26-2.54,6.86-5.59,13.47-9.4,19.82-5.59,9.4-11.69,18.81-19.57,26.68-5.84,5.84-11.69,11.94-18.81,16.26-6.35,4.07-12.96,7.88-20.08,10.67-7.12,3.05-14.49,4.32-21.6,6.35-2.03.51-3.81.51-5.84.76-9.91,1.27-20.08,1.78-29.99,1.02-6.61-.51-13.21,0-19.57-1.52-9.15-2.03-17.53-6.1-24.4-12.45-8.39-7.88-13.98-17.53-17.03-28.72-2.29-8.39-3.05-16.77-3.05-25.41v-104.19h0v-108.51c0-4.57.76-5.08,5.08-5.08h94.28c8.39,0,16.52,1.52,24.65,3.56,6.86,1.78,13.21,4.57,19.57,7.88,9.4,5.08,17.53,11.94,24.65,19.82,6.1,7.12,11.44,14.74,15.76,22.87,2.29,4.32,4.32,8.89,6.1,13.72,2.54,5.84,4.32,12.2,6.1,18.3,1.27,4.83,2.54,9.66,3.3,14.74,1.27,9.66,3.05,19.31,2.8,29.22,0,7.37.51,14.74-.51,21.85v-.25Z"/>
</svg>